<svg width="512" height="512" viewBox="0 0 512 512" fill="none" xmlns="http://www.w3.org/2000/svg">
<rect width="512" height="512" rx="80" fill="#4A9970"/>
<path d="M95.3312 58.7387C142.852 57.8091 191.528 59.5475 238.926 58.7118C354.57 56.6716 435.201 148.692 431.878 261.424C430.166 319.464 411.728 366.578 369.638 407.433C348.842 426.087 326.878 438.789 299.963 446.782C287.134 450.678 273.922 453.171 260.561 454.213C233.849 456.367 196.78 455.263 169.017 455.279L122.542 455.295C75.8594 455.302 80.7424 455.651 80.8023 411.373L80.8233 339.382L80.8005 164.965C80.7981 135.778 80.7317 106.591 80.7963 77.406C80.8203 66.5761 83.9044 60.8376 95.3312 58.7387Z" fill="white"/>
<path d="M323.07 184.296C329.775 183.723 334.899 184.041 340.67 188.127C345.471 191.47 348.68 196.644 349.536 202.428C350.111 206.262 349.285 213.722 346.944 216.663C341.592 223.384 335.145 229.929 329.242 236.224L300.31 267.035L258.687 311.492C249.779 321.091 240.967 330.727 231.868 340.209C227.324 345.59 221.132 348.144 214.066 347.967C202.356 347.674 192.681 334.55 185.214 326.507L162.475 302.155C153.099 291.791 137.464 279.902 137.645 266.468C137.761 260.543 140.288 254.921 144.641 250.899C148.95 246.856 154.69 244.694 160.596 244.891C172.471 245.31 181.114 257.538 188.757 265.728L215.405 294.347L285.781 218.506C295.012 208.63 304.74 197.522 314.522 188.158C316.497 186.264 320.394 185.078 323.07 184.296Z" fill="#4A9970"/>
</svg>
