<svg width="353" height="100" viewBox="0 0 353 100" fill="none" xmlns="http://www.w3.org/2000/svg">
<path d="M3.70226 0.0710272C15.6695 -0.163096 27.9276 0.274698 39.8639 0.0642435C68.9868 -0.449531 89.2921 22.7242 88.4554 51.1135C88.0242 65.7299 83.381 77.5945 72.7813 87.8831C67.5441 92.5807 62.0129 95.7796 55.2349 97.7924C52.0042 98.7737 48.677 99.4013 45.3122 99.6639C38.5855 100.206 29.2504 99.9284 22.2586 99.9323L10.5549 99.9363C-1.20136 99.9381 0.0283438 100.026 0.0434194 88.8753L0.048701 70.7458L0.0429685 26.822C0.0423655 19.4719 0.0256287 12.1217 0.0419103 4.77204C0.0479406 2.04472 0.824638 0.599576 3.70226 0.0710272Z" fill="#4A9970"/>
<path d="M61.054 31.6902C62.7425 31.5461 64.0329 31.6261 65.4862 32.655C66.6953 33.4969 67.5033 34.7998 67.7189 36.2566C67.8636 37.222 67.6556 39.1007 67.0661 39.8412C65.7184 41.5339 64.0947 43.182 62.6083 44.7673L55.3223 52.5266L44.8402 63.7221C42.597 66.1397 40.3779 68.5661 38.0864 70.954C36.9421 72.309 35.3827 72.9523 33.6034 72.9078C30.6544 72.834 28.2178 69.5289 26.3375 67.5034L20.6109 61.3708C18.2498 58.7609 14.3125 55.7668 14.3581 52.3838C14.3873 50.8916 15.0236 49.4757 16.1199 48.463C17.2049 47.4448 18.6507 46.9004 20.1379 46.95C23.1284 47.0555 25.305 50.1348 27.2296 52.1975L33.9405 59.4047L51.6634 40.3054C53.9881 37.8183 56.4379 35.021 58.9012 32.6629C59.3987 32.1859 60.3801 31.8871 61.054 31.6902Z" fill="white"/>
<path d="M152.648 50.0371C152.648 54.3462 151.839 58.0839 150.22 61.2502C148.601 64.4165 146.494 67.0114 143.899 69.035C141.28 71.0586 138.34 72.5704 135.078 73.5702C131.817 74.5701 128.448 75.0701 124.972 75.0701H103.975V72.5346C104.665 72.5346 105.558 72.4751 106.653 72.3561C107.772 72.2133 108.51 72.0585 108.867 71.8919C109.581 71.5824 110.093 71.13 110.403 70.5349C110.736 69.9159 110.903 69.1779 110.903 68.3208V31.7534C110.903 30.944 110.76 30.2179 110.474 29.5751C110.212 28.9323 109.676 28.4205 108.867 28.0396C108.129 27.6825 107.332 27.4206 106.474 27.2539C105.617 27.0873 104.879 26.9801 104.26 26.9325V24.3971H126.401C129.448 24.3971 132.448 24.8732 135.4 25.8255C138.352 26.754 140.923 28.0157 143.113 29.6108C146.089 31.7296 148.422 34.5031 150.112 37.9313C151.803 41.3595 152.648 45.3948 152.648 50.0371ZM143.899 50.0014C143.899 46.597 143.447 43.5259 142.542 40.7881C141.637 38.0265 140.316 35.6221 138.578 33.5747C136.935 31.6225 134.912 30.0869 132.507 28.968C130.127 27.8491 127.472 27.2896 124.544 27.2896C123.568 27.2896 122.461 27.3134 121.223 27.3611C120.009 27.3849 119.104 27.4087 118.509 27.4325V66.3925C118.509 68.5589 119.14 70.0587 120.401 70.892C121.663 71.7252 123.604 72.1418 126.222 72.1418C129.246 72.1418 131.888 71.6062 134.15 70.5349C136.412 69.4636 138.245 67.9756 139.649 66.0711C141.125 64.0713 142.197 61.762 142.863 59.1433C143.554 56.5007 143.899 53.4534 143.899 50.0014Z" fill="black"/>
<path d="M195.715 74.4273L184.252 75.2129L183.716 74.713V70.2492H183.502C182.93 70.8444 182.288 71.4871 181.573 72.1775C180.859 72.8441 180.038 73.4512 179.109 73.9988C178.038 74.6416 177.002 75.1296 176.003 75.4629C175.003 75.7962 173.586 75.9628 171.753 75.9628C168.634 75.9628 166.254 74.951 164.611 72.9275C162.992 70.8801 162.183 67.9161 162.183 64.0356V47.1803C162.183 46.3233 162.016 45.609 161.683 45.0377C161.373 44.4425 160.909 43.9307 160.29 43.5021C159.861 43.2165 159.326 43.0141 158.683 42.8951C158.04 42.7522 157.362 42.657 156.647 42.6094V40.2882L168.396 39.4312L168.932 39.9311V64.3927C168.932 66.94 169.503 68.8565 170.646 70.1421C171.789 71.4276 173.158 72.0704 174.753 72.0704C176.062 72.0704 177.229 71.8681 178.252 71.4633C179.276 71.0586 180.133 70.5825 180.823 70.0349C181.466 69.535 182.026 69.0112 182.502 68.4637C183.002 67.8923 183.383 67.3685 183.645 66.8924V46.9303C183.645 46.1447 183.478 45.4543 183.145 44.8591C182.811 44.2401 182.347 43.7164 181.752 43.2879C181.323 43.0022 180.681 42.8355 179.824 42.7879C178.99 42.7165 178.05 42.657 177.002 42.6094V40.2882L189.787 39.4312L190.322 39.9311V67.8923C190.322 68.7017 190.489 69.3921 190.822 69.9635C191.156 70.5349 191.62 71.0229 192.215 71.4276C192.644 71.6895 193.155 71.8681 193.751 71.9633C194.346 72.0347 195 72.0823 195.715 72.1061V74.4273Z" fill="black"/>
<path d="M231.318 66.7853C229.842 69.5945 227.866 71.8323 225.39 73.4988C222.914 75.1653 220.069 75.9986 216.855 75.9986C214.022 75.9986 211.534 75.4986 209.392 74.4987C207.273 73.4988 205.523 72.1418 204.142 70.4277C202.761 68.7136 201.726 66.7139 201.035 64.4284C200.369 62.1429 200.036 59.7265 200.036 57.1792C200.036 54.8937 200.393 52.6559 201.107 50.4657C201.845 48.2516 202.916 46.2637 204.321 44.502C205.678 42.8117 207.356 41.4547 209.356 40.431C211.38 39.3835 213.641 38.8598 216.141 38.8598C218.712 38.8598 220.914 39.2645 222.747 40.0739C224.58 40.8834 226.068 41.9904 227.211 43.395C228.306 44.7282 229.116 46.2994 229.639 48.1088C230.187 49.9181 230.461 51.8822 230.461 54.001V56.3579H207.142C207.142 58.6671 207.356 60.7621 207.785 62.6429C208.237 64.5236 208.939 66.1782 209.892 67.6066C210.82 68.9874 212.034 70.0825 213.534 70.892C215.034 71.6776 216.819 72.0704 218.891 72.0704C221.009 72.0704 222.831 71.5824 224.354 70.6063C225.902 69.6064 227.39 67.8209 228.818 65.2497L231.318 66.7853ZM223.426 53.3582C223.426 52.025 223.307 50.5966 223.069 49.073C222.854 47.5493 222.497 46.2756 221.997 45.2519C221.45 44.1568 220.7 43.2641 219.748 42.5737C218.795 41.8833 217.569 41.5381 216.07 41.5381C213.57 41.5381 211.487 42.5856 209.82 44.6806C208.178 46.7518 207.285 49.6443 207.142 53.3582H223.426Z" fill="black"/>
<path d="M267.564 44.0378C268.968 45.7043 270.052 47.6445 270.813 49.8586C271.599 52.0488 271.992 54.5604 271.992 57.3935C271.992 60.1789 271.528 62.7262 270.599 65.0355C269.671 67.3209 268.445 69.2731 266.921 70.892C265.326 72.5346 263.552 73.7964 261.6 74.6773C259.648 75.5581 257.577 75.9986 255.387 75.9986C253.268 75.9986 251.53 75.7605 250.173 75.2843C248.816 74.8082 247.709 74.2487 246.852 73.606H246.566V84.1762C246.566 85.0333 246.733 85.7475 247.066 86.3188C247.399 86.8902 247.911 87.3068 248.602 87.5687C249.173 87.783 249.982 87.9853 251.03 88.1758C252.101 88.39 252.982 88.5091 253.673 88.5329V90.9255H233.996V88.5329C234.734 88.4853 235.448 88.4258 236.139 88.3543C236.829 88.2829 237.448 88.1639 237.996 87.9972C238.71 87.7592 239.21 87.3425 239.496 86.7474C239.781 86.1522 239.924 85.4499 239.924 84.6405V47.1803C239.924 46.4661 239.745 45.7757 239.388 45.1091C239.031 44.4425 238.567 43.9069 237.996 43.5021C237.567 43.2165 236.972 43.0022 236.21 42.8593C235.448 42.6927 234.71 42.5856 233.996 42.538V40.2168L245.995 39.4312L246.495 39.8597V43.8235L246.78 43.8949C248.018 42.4665 249.554 41.2762 251.387 40.3239C253.22 39.3716 255.041 38.8955 256.851 38.8955C259.041 38.8955 261.041 39.3597 262.85 40.2882C264.683 41.2167 266.254 42.4665 267.564 44.0378ZM261.743 69.3564C262.695 67.8804 263.398 66.1663 263.85 64.2141C264.302 62.262 264.528 60.0836 264.528 57.6791C264.528 55.9174 264.338 54.12 263.957 52.2869C263.576 50.4537 262.981 48.8587 262.172 47.5017C261.362 46.1209 260.303 45.002 258.993 44.1449C257.684 43.2879 256.113 42.8593 254.28 42.8593C252.518 42.8593 251.018 43.2522 249.78 44.0378C248.542 44.7996 247.471 45.7162 246.566 46.7875V67.6066C246.78 68.2494 247.126 68.916 247.602 69.6064C248.102 70.2968 248.649 70.892 249.244 71.3919C249.982 71.9871 250.78 72.4751 251.637 72.856C252.494 73.2131 253.542 73.3917 254.78 73.3917C256.113 73.3917 257.398 73.0465 258.636 72.3561C259.874 71.6419 260.91 70.642 261.743 69.3564Z" fill="#4A9970"/>
<path d="M310.523 74.4273C309.404 74.832 308.416 75.1534 307.559 75.3915C306.726 75.6533 305.774 75.7843 304.703 75.7843C302.846 75.7843 301.358 75.3558 300.239 74.4987C299.144 73.6179 298.441 72.3442 298.132 70.6777H297.918C296.37 72.3918 294.704 73.7012 292.918 74.6058C291.156 75.5105 289.026 75.9628 286.526 75.9628C283.883 75.9628 281.705 75.1534 279.991 73.5345C278.301 71.9157 277.456 69.7969 277.456 67.1781C277.456 65.8211 277.646 64.6069 278.027 63.5356C278.408 62.4643 278.979 61.5001 279.741 60.6431C280.336 59.9289 281.122 59.298 282.098 58.7505C283.074 58.1791 283.991 57.7268 284.848 57.3935C285.919 56.9887 288.085 56.2388 291.347 55.1437C294.632 54.0486 296.846 53.1915 297.989 52.5726V49.0372C297.989 48.7277 297.918 48.1326 297.775 47.2517C297.656 46.3709 297.382 45.5376 296.953 44.752C296.477 43.8711 295.799 43.1093 294.918 42.4665C294.061 41.7999 292.835 41.4666 291.24 41.4666C290.145 41.4666 289.121 41.6571 288.169 42.038C287.24 42.3951 286.586 42.776 286.205 43.1807C286.205 43.6569 286.312 44.3592 286.526 45.2877C286.764 46.2161 286.883 47.0732 286.883 47.8588C286.883 48.692 286.502 49.4539 285.74 50.1443C285.002 50.8347 283.967 51.1799 282.634 51.1799C281.443 51.1799 280.562 50.7632 279.991 49.93C279.443 49.0729 279.17 48.1207 279.17 47.0732C279.17 45.9781 279.551 44.9306 280.312 43.9307C281.098 42.9308 282.11 42.038 283.348 41.2524C284.419 40.5858 285.717 40.0263 287.24 39.574C288.764 39.0979 290.252 38.8598 291.704 38.8598C293.704 38.8598 295.442 39.0026 296.918 39.2883C298.418 39.5502 299.775 40.1335 300.989 41.0381C302.203 41.919 303.119 43.1212 303.738 44.6449C304.381 46.1447 304.703 48.085 304.703 50.4657C304.703 53.87 304.667 56.8935 304.595 59.5361C304.524 62.1548 304.488 65.0236 304.488 68.1423C304.488 69.0707 304.643 69.8088 304.953 70.3563C305.286 70.9039 305.786 71.3681 306.452 71.749C306.81 71.9633 307.369 72.0823 308.131 72.1061C308.916 72.1299 309.714 72.1418 310.523 72.1418V74.4273ZM298.06 55.5722C296.037 56.1674 294.263 56.7507 292.74 57.322C291.216 57.8934 289.799 58.6076 288.49 59.4647C287.3 60.2741 286.359 61.2383 285.669 62.3572C284.979 63.4523 284.633 64.7617 284.633 66.2853C284.633 68.2613 285.145 69.7135 286.169 70.642C287.216 71.5705 288.538 72.0347 290.133 72.0347C291.823 72.0347 293.311 71.63 294.597 70.8205C295.882 69.9873 296.965 69.0112 297.846 67.8923L298.06 55.5722Z" fill="#4A9970"/>
<path d="M352.59 74.4273L340.306 75.2129L339.77 74.713V71.4276L339.484 71.3562C338.247 72.737 336.711 73.8678 334.878 74.7487C333.069 75.6295 331.2 76.07 329.271 76.07C327.272 76.07 325.331 75.6295 323.451 74.7487C321.594 73.844 319.975 72.5823 318.594 70.9634C317.189 69.3207 316.07 67.3447 315.237 65.0355C314.428 62.7262 314.023 60.1789 314.023 57.3935C314.023 54.8461 314.463 52.4297 315.344 50.1443C316.225 47.8588 317.439 45.859 318.987 44.1449C320.439 42.5499 322.213 41.2762 324.308 40.3239C326.426 39.3716 328.581 38.8955 330.771 38.8955C332.414 38.8955 334.021 39.1098 335.592 39.5383C337.187 39.943 338.556 40.4668 339.699 41.1095V28.8609C339.699 27.861 339.532 26.9563 339.199 26.1469C338.865 25.3137 338.401 24.6828 337.806 24.2543C337.14 23.8019 336.235 23.4805 335.092 23.2901C333.973 23.0758 332.759 22.9211 331.45 22.8258V20.6118L345.841 19.7905L346.377 20.3261V67.8209C346.377 68.6541 346.531 69.3683 346.841 69.9635C347.174 70.5349 347.65 71.0229 348.269 71.4276C348.722 71.7133 349.376 71.8919 350.233 71.9633C351.09 72.0347 351.876 72.0823 352.59 72.1061V74.4273ZM339.699 68.2494V47.6445C339.508 47.0256 339.199 46.359 338.77 45.6448C338.342 44.9305 337.806 44.2759 337.163 43.6807C336.473 43.0855 335.663 42.5975 334.735 42.2166C333.807 41.8118 332.723 41.6095 331.485 41.6095C330.057 41.6095 328.736 41.9785 327.522 42.7165C326.331 43.4545 325.272 44.5139 324.343 45.8947C323.462 47.2279 322.76 48.9301 322.236 51.0013C321.736 53.0487 321.486 55.3223 321.486 57.822C321.486 59.8218 321.677 61.643 322.058 63.2857C322.439 64.9045 323.082 66.4163 323.986 67.8209C324.819 69.1541 325.879 70.2254 327.164 71.0348C328.474 71.8442 330.021 72.249 331.807 72.249C333.711 72.249 335.283 71.8323 336.521 70.9991C337.782 70.1659 338.842 69.2493 339.699 68.2494Z" fill="#4A9970"/>
</svg>
